<mxfile host="Electron" modified="2023-11-30T10:56:23.915Z" agent="Mozilla/5.0 (Windows NT 10.0; Win64; x64) AppleWebKit/537.36 (KHTML, like Gecko) draw.io/22.0.0 Chrome/114.0.5735.289 Electron/25.8.3 Safari/537.36" etag="l9_UOG-TrZrJU4-uDfVM" version="22.0.0" type="device" pages="2">
  <diagram name="Page-1" id="51vcLLGkj3TvmhFwp4N6">
    <mxGraphModel dx="1501" dy="713" grid="1" gridSize="10" guides="1" tooltips="1" connect="1" arrows="1" fold="1" page="1" pageScale="1" pageWidth="850" pageHeight="1100" math="0" shadow="0">
      <root>
        <mxCell id="0" />
        <mxCell id="1" parent="0" />
        <mxCell id="6SahIN6AwEiKWJJaRVGE-1" value="Менеджер" style="shape=umlActor;verticalLabelPosition=bottom;verticalAlign=top;html=1;fontStyle=1" vertex="1" parent="1">
          <mxGeometry x="120" y="580" width="30" height="60" as="geometry" />
        </mxCell>
        <mxCell id="6SahIN6AwEiKWJJaRVGE-12" value="" style="endArrow=none;html=1;rounded=0;exitX=0.5;exitY=0.5;exitDx=0;exitDy=0;exitPerimeter=0;entryX=0;entryY=0.5;entryDx=0;entryDy=0;" edge="1" parent="1" target="6SahIN6AwEiKWJJaRVGE-5">
          <mxGeometry width="50" height="50" relative="1" as="geometry">
            <mxPoint x="150" y="615" as="sourcePoint" />
            <mxPoint x="315" y="492.5" as="targetPoint" />
          </mxGeometry>
        </mxCell>
        <mxCell id="0QLN2xNFQZ-OHUZJd2em-3" value="" style="endArrow=none;html=1;rounded=0;exitX=0.5;exitY=0.5;exitDx=0;exitDy=0;exitPerimeter=0;entryX=0;entryY=0.5;entryDx=0;entryDy=0;" edge="1" parent="1" target="0QLN2xNFQZ-OHUZJd2em-1">
          <mxGeometry width="50" height="50" relative="1" as="geometry">
            <mxPoint x="150" y="615" as="sourcePoint" />
            <mxPoint x="565" y="572.5" as="targetPoint" />
          </mxGeometry>
        </mxCell>
        <mxCell id="0QLN2xNFQZ-OHUZJd2em-7" value="" style="endArrow=none;html=1;rounded=0;exitX=0.5;exitY=0.5;exitDx=0;exitDy=0;exitPerimeter=0;entryX=0;entryY=0.5;entryDx=0;entryDy=0;" edge="1" parent="1" target="0QLN2xNFQZ-OHUZJd2em-6">
          <mxGeometry width="50" height="50" relative="1" as="geometry">
            <mxPoint x="150" y="615" as="sourcePoint" />
            <mxPoint x="355" y="702.5" as="targetPoint" />
          </mxGeometry>
        </mxCell>
        <mxCell id="0QLN2xNFQZ-OHUZJd2em-9" value="" style="swimlane;startSize=0;" vertex="1" parent="1">
          <mxGeometry x="250" y="170" width="560" height="730" as="geometry">
            <mxRectangle x="180" y="20" width="50" height="40" as="alternateBounds" />
          </mxGeometry>
        </mxCell>
        <mxCell id="6SahIN6AwEiKWJJaRVGE-6" value="Выбирать тип продукт" style="ellipse;whiteSpace=wrap;html=1;" vertex="1" parent="0QLN2xNFQZ-OHUZJd2em-9">
          <mxGeometry x="330" y="250" width="169" height="95" as="geometry" />
        </mxCell>
        <mxCell id="6SahIN6AwEiKWJJaRVGE-7" value="Вводить количество&lt;br&gt;производства" style="ellipse;whiteSpace=wrap;html=1;" vertex="1" parent="0QLN2xNFQZ-OHUZJd2em-9">
          <mxGeometry x="330" y="375" width="169" height="95" as="geometry" />
        </mxCell>
        <mxCell id="0QLN2xNFQZ-OHUZJd2em-4" value="Вводить изменение свойтства&amp;nbsp;&lt;br&gt;продукта" style="ellipse;whiteSpace=wrap;html=1;" vertex="1" parent="0QLN2xNFQZ-OHUZJd2em-9">
          <mxGeometry x="330" y="480" width="169" height="95" as="geometry" />
        </mxCell>
        <mxCell id="0QLN2xNFQZ-OHUZJd2em-32" style="edgeStyle=orthogonalEdgeStyle;rounded=0;orthogonalLoop=1;jettySize=auto;html=1;entryX=1;entryY=0.5;entryDx=0;entryDy=0;" edge="1" parent="0QLN2xNFQZ-OHUZJd2em-9" source="0QLN2xNFQZ-OHUZJd2em-16" target="6SahIN6AwEiKWJJaRVGE-17">
          <mxGeometry relative="1" as="geometry">
            <Array as="points">
              <mxPoint x="310" y="65" />
              <mxPoint x="310" y="117" />
            </Array>
          </mxGeometry>
        </mxCell>
        <mxCell id="0QLN2xNFQZ-OHUZJd2em-16" value="Заказ сделан системой" style="ellipse;whiteSpace=wrap;html=1;" vertex="1" parent="0QLN2xNFQZ-OHUZJd2em-9">
          <mxGeometry x="330" y="20" width="179" height="90" as="geometry" />
        </mxCell>
        <mxCell id="6SahIN6AwEiKWJJaRVGE-17" value="&lt;b&gt;Заказать сырьё&lt;/b&gt;" style="ellipse;whiteSpace=wrap;html=1;" vertex="1" parent="0QLN2xNFQZ-OHUZJd2em-9">
          <mxGeometry x="45" y="70" width="169" height="95" as="geometry" />
        </mxCell>
        <mxCell id="6SahIN6AwEiKWJJaRVGE-5" value="&lt;b&gt;Запросить&amp;nbsp; производство продукта&lt;/b&gt;" style="ellipse;whiteSpace=wrap;html=1;" vertex="1" parent="0QLN2xNFQZ-OHUZJd2em-9">
          <mxGeometry x="41" y="290" width="169" height="95" as="geometry" />
        </mxCell>
        <mxCell id="6SahIN6AwEiKWJJaRVGE-14" value="&quot;extend&quot;" style="endArrow=open;endSize=12;dashed=1;html=1;rounded=0;entryX=1;entryY=0.5;entryDx=0;entryDy=0;exitX=0;exitY=0.5;exitDx=0;exitDy=0;" edge="1" parent="0QLN2xNFQZ-OHUZJd2em-9" source="6SahIN6AwEiKWJJaRVGE-7" target="6SahIN6AwEiKWJJaRVGE-5">
          <mxGeometry width="160" relative="1" as="geometry">
            <mxPoint x="305" y="127.5" as="sourcePoint" />
            <mxPoint x="199" y="188.5" as="targetPoint" />
          </mxGeometry>
        </mxCell>
        <mxCell id="6SahIN6AwEiKWJJaRVGE-15" value="&quot;extend&quot;" style="endArrow=open;endSize=12;dashed=1;html=1;rounded=0;exitX=0.5;exitY=1;exitDx=0;exitDy=0;" edge="1" parent="0QLN2xNFQZ-OHUZJd2em-9" source="6SahIN6AwEiKWJJaRVGE-17" target="6SahIN6AwEiKWJJaRVGE-5">
          <mxGeometry x="0.0345" y="16" width="160" relative="1" as="geometry">
            <mxPoint x="315" y="137.5" as="sourcePoint" />
            <mxPoint x="209" y="198.5" as="targetPoint" />
            <mxPoint as="offset" />
          </mxGeometry>
        </mxCell>
        <mxCell id="6SahIN6AwEiKWJJaRVGE-13" value="&quot;extend&quot;" style="endArrow=open;endSize=12;dashed=1;html=1;rounded=0;exitX=0;exitY=0.5;exitDx=0;exitDy=0;entryX=1;entryY=0.5;entryDx=0;entryDy=0;" edge="1" parent="0QLN2xNFQZ-OHUZJd2em-9" source="6SahIN6AwEiKWJJaRVGE-6" target="6SahIN6AwEiKWJJaRVGE-5">
          <mxGeometry x="0.2058" y="-14" width="160" relative="1" as="geometry">
            <mxPoint x="155" y="232.5" as="sourcePoint" />
            <mxPoint x="175" y="221.5" as="targetPoint" />
            <mxPoint as="offset" />
          </mxGeometry>
        </mxCell>
        <mxCell id="0QLN2xNFQZ-OHUZJd2em-1" value="&lt;b&gt;Управление продуктами&lt;/b&gt;" style="ellipse;whiteSpace=wrap;html=1;" vertex="1" parent="0QLN2xNFQZ-OHUZJd2em-9">
          <mxGeometry x="41" y="480" width="169" height="95" as="geometry" />
        </mxCell>
        <mxCell id="0QLN2xNFQZ-OHUZJd2em-5" value="&quot;extend&quot;" style="endArrow=open;endSize=12;dashed=1;html=1;rounded=0;entryX=1;entryY=0.5;entryDx=0;entryDy=0;exitX=0;exitY=0.5;exitDx=0;exitDy=0;" edge="1" parent="0QLN2xNFQZ-OHUZJd2em-9" source="0QLN2xNFQZ-OHUZJd2em-4" target="0QLN2xNFQZ-OHUZJd2em-1">
          <mxGeometry width="160" relative="1" as="geometry">
            <mxPoint x="315" y="270.5" as="sourcePoint" />
            <mxPoint x="224" y="270.5" as="targetPoint" />
          </mxGeometry>
        </mxCell>
        <mxCell id="0QLN2xNFQZ-OHUZJd2em-6" value="&lt;b&gt;Оформить доставку&lt;br&gt;дистрибютору&lt;/b&gt;" style="ellipse;whiteSpace=wrap;html=1;" vertex="1" parent="0QLN2xNFQZ-OHUZJd2em-9">
          <mxGeometry x="41" y="635" width="169" height="95" as="geometry" />
        </mxCell>
        <mxCell id="0QLN2xNFQZ-OHUZJd2em-8" value="&quot;extend&quot;" style="endArrow=open;endSize=12;dashed=1;html=1;rounded=0;entryX=0.5;entryY=1;entryDx=0;entryDy=0;exitX=0.5;exitY=0;exitDx=0;exitDy=0;" edge="1" parent="0QLN2xNFQZ-OHUZJd2em-9" source="0QLN2xNFQZ-OHUZJd2em-6" target="0QLN2xNFQZ-OHUZJd2em-1">
          <mxGeometry width="160" relative="1" as="geometry">
            <mxPoint x="305" y="422.5" as="sourcePoint" />
            <mxPoint x="224" y="422.5" as="targetPoint" />
          </mxGeometry>
        </mxCell>
        <mxCell id="0QLN2xNFQZ-OHUZJd2em-31" style="edgeStyle=orthogonalEdgeStyle;rounded=0;orthogonalLoop=1;jettySize=auto;html=1;entryX=1;entryY=0.5;entryDx=0;entryDy=0;" edge="1" parent="0QLN2xNFQZ-OHUZJd2em-9" source="0QLN2xNFQZ-OHUZJd2em-20" target="6SahIN6AwEiKWJJaRVGE-17">
          <mxGeometry relative="1" as="geometry">
            <Array as="points">
              <mxPoint x="310" y="175" />
              <mxPoint x="310" y="117" />
            </Array>
          </mxGeometry>
        </mxCell>
        <mxCell id="0QLN2xNFQZ-OHUZJd2em-20" value="Заказ сделан менеджером" style="ellipse;whiteSpace=wrap;html=1;" vertex="1" parent="0QLN2xNFQZ-OHUZJd2em-9">
          <mxGeometry x="340" y="130" width="159" height="90" as="geometry" />
        </mxCell>
        <mxCell id="0QLN2xNFQZ-OHUZJd2em-11" value="" style="endArrow=none;html=1;rounded=0;entryX=0;entryY=0.5;entryDx=0;entryDy=0;exitX=0.5;exitY=0.5;exitDx=0;exitDy=0;exitPerimeter=0;" edge="1" parent="1" target="6SahIN6AwEiKWJJaRVGE-17">
          <mxGeometry width="50" height="50" relative="1" as="geometry">
            <mxPoint x="150" y="615" as="sourcePoint" />
            <mxPoint x="355" y="550.5" as="targetPoint" />
          </mxGeometry>
        </mxCell>
        <UserObject label="https://docs.google.com/document/d/1ueQoIZirg0VPuqH2DdFhtq9amSseEfl_1tr2BEIsUP4/edit" link="https://docs.google.com/document/d/1ueQoIZirg0VPuqH2DdFhtq9amSseEfl_1tr2BEIsUP4/edit" id="0QLN2xNFQZ-OHUZJd2em-33">
          <mxCell style="text;whiteSpace=wrap;" vertex="1" parent="1">
            <mxGeometry x="140" y="960" width="560" height="40" as="geometry" />
          </mxCell>
        </UserObject>
      </root>
    </mxGraphModel>
  </diagram>
  <diagram id="CbOyvHo9jyXQnSb7Mpkq" name="Page-2">
    <mxGraphModel dx="1276" dy="606" grid="1" gridSize="10" guides="1" tooltips="1" connect="1" arrows="1" fold="1" page="1" pageScale="1" pageWidth="850" pageHeight="1100" math="0" shadow="0">
      <root>
        <mxCell id="0" />
        <mxCell id="1" parent="0" />
      </root>
    </mxGraphModel>
  </diagram>
</mxfile>
